<?xml version="1.0" encoding="UTF-8"?>
<svg id="Layer_2" data-name="Layer 2" xmlns="http://www.w3.org/2000/svg" viewBox="0 0 794.29 745.86">
  <defs>
    <style>
      .cls-1 {
        fill: #dfe5a2;
      }
    </style>
  </defs>
  <g id="Layer_1-2" data-name="Layer 1">
    <path class="cls-1" d="m429.81,745.86c5.72-28.72,9.06-84.17-3.18-110.85-18.83-41.02-111.31-38.09-150.73-41.87-59.78-5.73-119.96-21.41-167.58-60.23-35.32-28.78-64.79-49.39-80.71-94.11C8.12,384.06,0,281.38,0,222.38V0h792.2s0,220.81,0,233.61v231.58c0,66.48,15.35,139.55-37.02,191.03-23.9,23.49-65.69,14.79-96.77,14.79-45.95,0-91.34-1.52-132.84,20.21-33.46,17.52-57.7,46.24-95.76,54.65Z"/>
  </g>
</svg>